<?xml version="1.0" encoding="UTF-8" standalone="no"?>
<!-- Generator: Adobe Illustrator 21.0.0, SVG Export Plug-In . SVG Version: 6.00 Build 0)  -->

<svg
   xmlns:dc="http://purl.org/dc/elements/1.1/"
   xmlns:cc="http://creativecommons.org/ns#"
   xmlns:rdf="http://www.w3.org/1999/02/22-rdf-syntax-ns#"
   xmlns:svg="http://www.w3.org/2000/svg"
   xmlns="http://www.w3.org/2000/svg"
   xmlns:sodipodi="http://sodipodi.sourceforge.net/DTD/sodipodi-0.dtd"
   xmlns:inkscape="http://www.inkscape.org/namespaces/inkscape"
   xml:space="preserve"
   viewBox="0 0 345.03492 105.51023"
   height="105.51092"
   width="345.03793"
   version="1.1"
   y="0px"
   x="0px"
   id="svg24"
   sodipodi:docname="logo3.svg"
   inkscape:version="0.92.1 unknown"><defs
     id="defs28" /><sodipodi:namedview
     pagecolor="#ffffff"
     bordercolor="#666666"
     borderopacity="1"
     objecttolerance="10"
     gridtolerance="10"
     guidetolerance="10"
     inkscape:pageopacity="0"
     inkscape:pageshadow="2"
     inkscape:window-width="1317"
     inkscape:window-height="744"
     id="namedview26"
     showgrid="false"
     inkscape:zoom="1.605"
     inkscape:cx="139.02603"
     inkscape:cy="101.66539"
     inkscape:window-x="49"
     inkscape:window-y="24"
     inkscape:window-maximized="1"
     inkscape:current-layer="svg24"
     fit-margin-top="0"
     fit-margin-left="0"
     fit-margin-right="0"
     fit-margin-bottom="0"
     showguides="true"
     inkscape:guide-bbox="true"><sodipodi:guide
       position="-68.706878,-43.162109"
       orientation="0,1"
       id="guide5335"
       inkscape:locked="false" /></sodipodi:namedview><metadata
     id="metadata2"><rdf:RDF><cc:Work
         rdf:about=""><dc:format>image/svg+xml</dc:format><dc:type
           rdf:resource="http://purl.org/dc/dcmitype/StillImage" /><dc:title /></cc:Work></rdf:RDF></metadata><g
     aria-label="Cesar"
     style="font-style:normal;font-variant:normal;font-weight:bold;font-stretch:normal;font-size:112.91817474px;line-height:1.25;font-family:Poppins;-inkscape-font-specification:'Poppins Bold';letter-spacing:0px;word-spacing:0px;fill:#000000;fill-opacity:1;stroke:none;stroke-width:1.17623103"
     id="text5287"><path
       d="M 15.716576,69.670517 Q 3.9730857,58.152863 3.9730857,40.537628 q 0,-17.615236 11.7434903,-29.019971 Q 27.572984,2.8076172e-6 44.623629,2.8076172e-6 q 13.211426,0 23.48698,7.0009267923828 10.275554,7.0009264 14.340608,19.4219264 H 59.41591 q -4.516727,-8.6947 -14.453527,-8.6947 -9.936799,0 -15.695626,6.2105 -5.645909,6.210499 -5.645909,16.598972 0,10.388472 5.645909,16.598971 5.758827,6.2105 15.695626,6.2105 9.9368,0 14.453527,-8.6947 h 23.035307 q -4.065054,12.421 -14.340608,19.421926 -10.275554,7.000927 -23.48698,7.000927 -17.050645,0 -28.907053,-11.404735 z"
       style="font-style:normal;font-variant:normal;font-weight:bold;font-stretch:normal;font-family:Poppins;-inkscape-font-specification:'Poppins Bold';stroke-width:1.17623103"
       id="path5337" /><path
       d="m 117.5968,81.18817 q -13.77602,0 -22.583633,-8.807617 -8.807618,-8.920536 -8.807618,-23.599899 0,-14.679362 8.694699,-23.374062 8.807612,-8.694699 22.696552,-8.694699 13.88893,0 23.0353,8.581781 9.14638,8.581781 9.14638,23.825735 0,3.274627 -0.45168,6.097581 h -43.36058 q 0.56459,4.177973 3.7263,6.888009 3.16171,2.597118 6.77509,2.597118 3.7263,0 5.53299,-0.677509 1.8067,-0.790427 2.59712,-1.467936 0.90335,-0.790428 2.25837,-2.4842 h 20.88986 q -2.71004,9.485126 -10.84015,15.356872 -8.13011,5.758826 -19.309,5.758826 z m 12.08224,-38.053424 q -0.45167,-4.403809 -3.83922,-7.113845 -3.38754,-2.822955 -8.01719,-2.822955 -4.62964,0 -7.79135,2.822955 -3.16171,2.710036 -3.95214,7.113845 z"
       style="font-style:normal;font-variant:normal;font-weight:bold;font-stretch:normal;font-family:Poppins;-inkscape-font-specification:'Poppins Bold';stroke-width:1.17623103"
       id="path5339"
       inkscape:connector-curvature="0" /><path
       d="m 154.00036,36.359655 q 0,-8.355945 7.11384,-14.001854 7.11385,-5.645908 19.19609,-5.645908 12.19516,0 19.64776,5.53299 7.4526,5.532991 7.90428,15.131036 h -19.76068 q -0.33876,-3.274627 -2.25837,-4.403809 -1.91961,-1.2421 -5.75882,-1.2421 -7.56552,0 -7.56552,4.629645 0,4.177973 9.25929,5.758827 9.37221,1.580854 17.05064,4.855482 3.95214,1.580854 6.54926,5.307154 2.71003,3.613381 2.71003,8.920536 0,8.807617 -7.56552,14.453526 -7.56551,5.53299 -19.08317,5.53299 -11.51765,0 -19.19609,-5.194236 -7.67843,-5.307154 -8.35594,-15.582708 h 19.76068 q 0.79043,5.758827 8.13011,5.758827 3.38754,0 5.53299,-1.580854 2.25836,-1.580855 2.25836,-4.065055 0,-2.484199 -3.7263,-3.952136 -3.61338,-1.467936 -8.80762,-2.484199 -5.19423,-1.016264 -10.50139,-2.4842 -5.19423,-1.580855 -8.92053,-5.307155 -3.61338,-3.839217 -3.61338,-9.936799 z"
       style="font-style:normal;font-variant:normal;font-weight:bold;font-stretch:normal;font-family:Poppins;-inkscape-font-specification:'Poppins Bold';stroke-width:1.17623103"
       id="path5341"
       inkscape:connector-curvature="0" /><path
       d="m 259.31772,60.411226 q 4.17797,-4.065054 4.17797,-11.517654 0,-7.452599 -4.17797,-11.404735 -4.17797,-4.065054 -9.59805,-4.065054 -5.42007,0 -9.59804,4.065054 -4.17797,4.065054 -4.17797,11.517654 0,7.452599 4.17797,11.517653 4.17797,3.952137 9.59804,3.952137 5.42008,0 9.59805,-4.065055 z m -34.66588,11.74349 q -8.35595,-9.033454 -8.35595,-23.148225 0,-14.114772 8.35595,-23.148226 8.35594,-9.146372 20.32527,-9.146372 12.08225,0 18.51858,8.920535 v -8.243026 h 19.30901 v 63.008341 h -19.30901 v -9.146372 q -7.00092,9.936799 -18.74442,9.936799 -11.74349,0 -20.09943,-9.033454 z"
       style="font-style:normal;font-variant:normal;font-weight:bold;font-stretch:normal;font-family:Poppins;-inkscape-font-specification:'Poppins Bold';stroke-width:1.17623103"
       id="path5343"
       inkscape:connector-curvature="0" /><path
       d="m 308.96856,17.389402 v 11.74349 q 6.77509,-12.420999 18.06691,-12.420999 v 19.647762 h -4.74256 q -6.66218,0 -10.04972,3.161709 -3.27463,3.161709 -3.27463,11.065981 V 80.397743 H 289.65955 V 17.389402 Z"
       style="font-style:normal;font-variant:normal;font-weight:bold;font-stretch:normal;font-family:Poppins;-inkscape-font-specification:'Poppins Bold';stroke-width:1.17623103"
       id="path5345"
       inkscape:connector-curvature="0" /></g><path
     inkscape:connector-curvature="0"
     id="path5293"
     style="font-style:normal;font-variant:normal;font-weight:bold;font-stretch:normal;font-size:medium;line-height:1.25;font-family:Poppins;-inkscape-font-specification:'Poppins Bold';letter-spacing:0px;word-spacing:0px;fill:#ff4500;fill-opacity:0.99607843;stroke:none;stroke-width:0.48344943"
     d="m 41.401389,97.527996 q 0,3.295194 -2.366969,6.358324 -1.253101,1.57798 -3.759302,2.59903 -2.459792,0.97463 -5.847805,0.97463 h -4.919581 v 12.67024 H 16.571426 V 87.5496 h 12.855887 q 5.662161,0 8.818117,2.923903 3.155959,2.923899 3.155959,7.054493 z m -16.893657,3.898534 h 4.919581 q 1.810035,0 2.831081,-1.06745 1.067456,-1.067457 1.067456,-2.784674 0,-1.763617 -1.067456,-2.877487 -1.067458,-1.113867 -2.831081,-1.113867 h -4.919581 z" /><path
     inkscape:connector-curvature="0"
     id="path5295"
     style="font-style:normal;font-variant:normal;font-weight:bold;font-stretch:normal;font-size:medium;line-height:1.25;font-family:Poppins;-inkscape-font-specification:'Poppins Bold';letter-spacing:0px;word-spacing:0px;fill:#ff4500;fill-opacity:0.99607843;stroke:none;stroke-width:0.48344943"
     d="m 61.254418,111.11122 q 1.577979,-1.6708 1.577979,-4.82675 0,-3.15596 -1.624391,-4.78036 -1.624388,-1.670797 -3.852124,-1.670797 -2.227736,0 -3.852125,1.670797 -1.577979,1.6244 -1.577979,4.78036 0,3.15595 1.624389,4.82675 1.670801,1.67081 3.898537,1.67081 2.227734,0 3.805714,-1.67081 z m -13.505643,4.78035 q -3.898537,-3.66647 -3.898537,-9.65352 0,-5.98704 3.898537,-9.560697 3.898536,-3.620068 9.653517,-3.620068 5.754983,0 9.607107,3.620068 3.898537,3.573657 3.898537,9.560697 0,5.98705 -3.852125,9.65352 -3.852126,3.66648 -9.607107,3.66648 -5.754982,0 -9.699929,-3.66648 z" /><path
     inkscape:connector-curvature="0"
     id="path5297"
     style="font-style:normal;font-variant:normal;font-weight:bold;font-stretch:normal;font-size:medium;line-height:1.25;font-family:Poppins;-inkscape-font-specification:'Poppins Bold';letter-spacing:0px;word-spacing:0px;fill:#ff4500;fill-opacity:0.99607843;stroke:none;stroke-width:0.48344943"
     d="m 93.365565,92.844545 v 6.543968 l -9.931986,12.809477 h 9.931986 v 6.54398 H 74.104941 v -6.54398 l 9.931984,-12.809477 h -9.931984 v -6.543968 z" /><path
     inkscape:connector-curvature="0"
     id="path5299"
     style="font-style:normal;font-variant:normal;font-weight:bold;font-stretch:normal;font-size:medium;line-height:1.25;font-family:Poppins;-inkscape-font-specification:'Poppins Bold';letter-spacing:0px;word-spacing:0px;fill:#ff4500;fill-opacity:0.99607843;stroke:none;stroke-width:0.48344943"
     d="m 112.57462,110.41144 q 1.57798,-1.6708 1.57798,-4.82676 0,-3.15596 -1.6244,-4.78035 -1.62439,-1.670807 -3.85212,-1.670807 -2.22775,0 -3.85214,1.670807 -1.57798,1.62439 -1.57798,4.78035 0,3.15596 1.62439,4.82676 1.67082,1.6708 3.89854,1.6708 2.22775,0 3.80573,-1.6708 z m -13.505664,4.78035 q -3.898533,-3.66648 -3.898533,-9.65352 0,-5.987037 3.898533,-9.560699 3.898534,-3.620069 9.653534,-3.620069 5.75498,0 9.60711,3.620069 3.89853,3.573662 3.89853,9.560699 0,5.98704 -3.85213,9.65352 -3.85211,3.66648 -9.60711,3.66648 -5.75498,0 -9.699934,-3.66648 z" /><path
     inkscape:connector-curvature="0"
     id="path5301"
     style="font-style:normal;font-variant:normal;font-weight:bold;font-stretch:normal;font-size:medium;line-height:1.25;font-family:Poppins;-inkscape-font-specification:'Poppins Bold';letter-spacing:0px;word-spacing:0px;fill:#ff4500;fill-opacity:0.99607843;stroke:none;stroke-width:0.41204751"
     d="m 166.4345,90.973258 v 27.768712 h -6.76418 v -15.6644 l -6.44771,15.6644 h -5.02369 l -6.44771,-15.6644 v 15.6644 h -6.76418 V 90.973258 h 7.75309 l 7.99042,19.145382 7.95087,-19.145382 z" /><path
     sodipodi:nodetypes="ccccc"
     inkscape:connector-curvature="0"
     id="path5303"
     style="font-style:normal;font-variant:normal;font-weight:bold;font-stretch:normal;font-size:medium;line-height:1.25;font-family:Poppins;-inkscape-font-specification:'Poppins Bold';letter-spacing:0px;word-spacing:0px;fill:#ff4500;fill-opacity:0.99607843;stroke:none;stroke-width:0.48344943"
     d="m 172.89938,118.74197 -0.17579,-24.775384 h 7.93631 l 0.17579,24.775384 z" /><path
     inkscape:connector-curvature="0"
     id="path5305"
     style="font-style:normal;font-variant:normal;font-weight:bold;font-stretch:normal;font-size:medium;line-height:1.25;font-family:Poppins;-inkscape-font-specification:'Poppins Bold';letter-spacing:0px;word-spacing:0px;fill:#ff4500;fill-opacity:0.99607843;stroke:none;stroke-width:0.48344943"
     d="m 194.51857,92.844552 v 4.82676 q 2.78466,-5.105226 7.42577,-5.105226 v 8.075544 h -1.94926 q -2.73826,0 -4.13059,1.29951 -1.34592,1.29951 -1.34592,4.5483 v 12.25253 h -7.93631 V 92.844552 Z" /><path
     inkscape:connector-curvature="0"
     id="path5307"
     style="font-style:normal;font-variant:normal;font-weight:bold;font-stretch:normal;font-size:medium;line-height:1.25;font-family:Poppins;-inkscape-font-specification:'Poppins Bold';letter-spacing:0px;word-spacing:0px;fill:#ff4500;fill-opacity:0.99607843;stroke:none;stroke-width:0.48344943"
     d="m 221.2709,110.52719 q 1.71722,-1.6708 1.71722,-4.73394 0,-3.06313 -1.71722,-4.68753 -1.71721,-1.670797 -3.94494,-1.670797 -2.22775,0 -3.94497,1.670797 -1.71721,1.67081 -1.71721,4.73395 0,3.06313 1.71721,4.73393 1.71722,1.62439 3.94497,1.62439 2.22773,0 3.94494,-1.6708 z m -14.24823,4.82675 q -3.43442,-3.71288 -3.43442,-9.51427 0,-5.8014 3.43442,-9.514294 3.43443,-3.759303 8.35401,-3.759303 4.96601,0 7.61144,3.666479 v -3.388013 h 7.9363 v 25.897431 h -7.9363 v -3.75931 q -2.87749,4.08418 -7.70427,4.08418 -4.82675,0 -8.26118,-3.7129 z" /><path
     inkscape:connector-curvature="0"
     id="path5309"
     style="font-style:normal;font-variant:normal;font-weight:bold;font-stretch:normal;font-size:medium;line-height:1.25;font-family:Poppins;-inkscape-font-specification:'Poppins Bold';letter-spacing:0px;word-spacing:0px;fill:#ff4500;fill-opacity:0.99607843;stroke:none;stroke-width:0.48344943"
     d="m 243.06654,92.844545 v 3.805714 q 2.45979,-4.084181 7.84348,-4.084181 4.45547,0 7.19372,2.970314 2.78468,2.970311 2.78468,8.075538 v 15.13004 h -7.88989 v -14.06258 q 0,-2.5062 -1.34593,-3.85213 -1.2995,-1.392337 -3.62008,-1.392337 -2.32054,0 -3.66646,1.392337 -1.29952,1.34593 -1.29952,3.85213 v 14.06258 h -7.9363 V 92.844545 Z" /><path
     inkscape:connector-curvature="0"
     id="path5311"
     style="font-style:normal;font-variant:normal;font-weight:bold;font-stretch:normal;font-size:medium;line-height:1.25;font-family:Poppins;-inkscape-font-specification:'Poppins Bold';letter-spacing:0px;word-spacing:0px;fill:#ff4500;fill-opacity:0.99607843;stroke:none;stroke-width:0.48344943"
     d="m 281.15113,110.5272 q 1.71722,-1.6708 1.71722,-4.73394 0,-3.06314 -1.71722,-4.68753 -1.71721,-1.670807 -3.94495,-1.670807 -2.22772,0 -3.94493,1.670807 -1.71723,1.6708 -1.71723,4.73394 0,3.06314 1.71723,4.73394 1.71721,1.62438 3.94493,1.62438 2.22774,0 3.94495,-1.67079 z m -14.24823,4.82675 q -3.43441,-3.71288 -3.43441,-9.51428 0,-5.8014 3.43441,-9.514288 3.43444,-3.759304 8.35401,-3.759304 4.96598,0 7.61144,3.66648 V 84.397717 h 7.93631 v 34.344253 h -7.93631 v -3.75931 q -2.87749,4.08418 -7.70426,4.08418 -4.82675,0 -8.26119,-3.71289 z" /><path
     inkscape:connector-curvature="0"
     id="path5313"
     style="font-style:normal;font-variant:normal;font-weight:bold;font-stretch:normal;font-size:medium;line-height:1.25;font-family:Poppins;-inkscape-font-specification:'Poppins Bold';letter-spacing:0px;word-spacing:0px;fill:#ff4500;fill-opacity:0.99607843;stroke:none;stroke-width:0.48344943"
     d="m 310.23863,110.4044 q 1.71722,-1.6708 1.71722,-4.73394 0,-3.06314 -1.71722,-4.68753 -1.71721,-1.670807 -3.94495,-1.670807 -2.22772,0 -3.94493,1.670807 -1.71723,1.6708 -1.71723,4.73394 0,3.06314 1.71723,4.73394 1.71721,1.62438 3.94493,1.62438 2.22774,0 3.94495,-1.67079 z m -14.24822,4.82675 q -3.43442,-3.71289 -3.43442,-9.51428 0,-5.801397 3.43442,-9.514289 3.43444,-3.759304 8.35401,-3.759304 4.96598,0 7.61143,3.66648 v -3.388013 h 7.9363 v 25.897426 h -7.9363 v -3.75931 q -2.8775,4.08419 -7.70425,4.08419 -4.82675,0 -8.26119,-3.7129 z" /></svg>